<svg xmlns="http://www.w3.org/2000/svg" width="192" height="192" viewBox="0 0 192 192"><g transform="translate(-760.183 -340)"><rect width="192" height="192" transform="translate(760.183 340)" fill="rgba(255,255,255,0)"/><g transform="translate(809.608 377.474)"><g transform="translate(0 30.748)"><rect width="32" height="87" transform="translate(-0.426 -0.222)" fill="rgba(255,255,255,0)"/><path d="M15.374,86.356h0A15.416,15.416,0,0,0,0,71.1a7.7,7.7,0,0,0,7.687-7.687V23.061A7.7,7.7,0,0,0,0,15.374,15.392,15.392,0,0,0,15.373,0a15.274,15.274,0,0,0,4.509,10.866,15.269,15.269,0,0,0,10.866,4.508,7.7,7.7,0,0,0-7.687,7.687V63.417A7.7,7.7,0,0,0,30.748,71.1,15.417,15.417,0,0,0,15.374,86.356Z" transform="translate(0.366 0)" fill="#1b1b1b"/></g><g transform="translate(0 0)"><rect width="32" height="30" transform="translate(-0.426 0.526)" fill="rgba(255,255,255,0)"/><path d="M15.374,30.625h0A15.416,15.416,0,0,0,0,15.374,15.391,15.391,0,0,0,15.373,0a15.273,15.273,0,0,0,4.509,10.866,15.27,15.27,0,0,0,10.866,4.508A15.417,15.417,0,0,0,15.374,30.625Z" transform="translate(0.366 0)" fill="#1b1b1b"/></g><g transform="translate(31.114 30.748)"><rect width="30" height="87" transform="translate(0.46 -0.222)" fill="rgba(255,255,255,0)"/><path d="M15.374,86.356h0A15.416,15.416,0,0,0,0,71.1a7.7,7.7,0,0,0,7.687-7.687V23.061A7.7,7.7,0,0,0,0,15.374,15.392,15.392,0,0,0,15.373,0a15.274,15.274,0,0,0,4.509,10.866,15.269,15.269,0,0,0,10.866,4.508,7.7,7.7,0,0,0-7.687,7.687V63.417A7.7,7.7,0,0,0,30.748,71.1,15.417,15.417,0,0,0,15.374,86.356Z" transform="translate(0 0)" fill="#1b1b1b"/></g><g transform="translate(31.114 0)"><rect width="30" height="30" transform="translate(0.46 0.526)" fill="rgba(255,255,255,0)"/><path d="M15.374,30.625h0A15.416,15.416,0,0,0,0,15.374,15.391,15.391,0,0,0,15.373,0a15.273,15.273,0,0,0,4.509,10.866,15.27,15.27,0,0,0,10.866,4.508A15.417,15.417,0,0,0,15.374,30.625Z" transform="translate(0 0)" fill="#1b1b1b"/></g><g transform="translate(61.782 30.748)"><rect width="31" height="87" transform="translate(-0.208 -0.222)" fill="rgba(255,255,255,0)"/><path d="M15.374,86.356h0A15.416,15.416,0,0,0,0,71.1a7.7,7.7,0,0,0,7.687-7.687V23.061A7.7,7.7,0,0,0,0,15.374,15.392,15.392,0,0,0,15.373,0a15.274,15.274,0,0,0,4.509,10.866,15.269,15.269,0,0,0,10.866,4.508,7.7,7.7,0,0,0-7.687,7.687V63.417A7.7,7.7,0,0,0,30.748,71.1,15.417,15.417,0,0,0,15.374,86.356Z" transform="translate(0.079 0)" fill="#1b1b1b"/></g><g transform="translate(61.782 0)"><rect width="31" height="30" transform="translate(-0.208 0.526)" fill="rgba(255,255,255,0)"/><path d="M15.374,30.625h0A15.416,15.416,0,0,0,0,15.374,15.391,15.391,0,0,0,15.373,0a15.273,15.273,0,0,0,4.509,10.866,15.27,15.27,0,0,0,10.866,4.508A15.417,15.417,0,0,0,15.374,30.625Z" transform="translate(0.079 0)" fill="#1b1b1b"/></g></g></g></svg>